<?xml version="1.0" standalone="no"?><!DOCTYPE svg PUBLIC "-//W3C//DTD SVG 1.1//EN" "http://www.w3.org/Graphics/SVG/1.1/DTD/svg11.dtd"><svg t="1740065072071" class="icon" viewBox="0 0 1427 1024" version="1.1" xmlns="http://www.w3.org/2000/svg" p-id="19482" xmlns:xlink="http://www.w3.org/1999/xlink" width="278.7109375" height="200"><path d="M50.669376 649.481064h272.589908c2.37083-34.487453 4.74166-65.836022 9.477765-97.187369H50.669376c-18.96803 0-35.558285 21.951359-35.558285 50.16521 0 25.077744 16.590255 47.022158 35.558285 47.022159zM50.669376 118.444284h986.070884c18.962474 0 35.55273-27.633296 35.55273-59.216587 0-31.594402-14.219425-59.227697-35.55273-59.227697H50.669376C31.701346 0 15.111091 27.633296 15.111091 59.227697c0 31.58329 16.590255 59.216586 35.558285 59.216587zM50.669376 379.555041h353.184243c21.331916-37.115227 61.626305-70.854071 87.699881-104.592914H50.669376c-18.96803 0-35.558285 23.62219-35.558285 53.987427 0 26.990241 16.590255 50.605487 35.558285 50.605487zM50.669376 824.890548v3.458328c-18.96803 0-35.558285 20.797194-35.558285 48.520768 0 27.720796 16.590255 48.51799 35.558285 48.51799h338.957873c-14.219425-31.187458-26.073576-65.842966-35.55134-100.497086H50.669376zM778.369778 274.962127c-206.223331 0-374.516159 168.298383-374.516159 374.516159 0 206.221943 168.292827 374.521714 374.516159 374.521714 206.221943 0 374.516159-168.299772 374.516158-374.521714 0-206.217776-168.294216-374.516159-374.516158-374.516159z m135.112316 410.074444h-135.112316c-18.961085 0-35.558285-16.591644-35.558286-35.558285V481.18407c0-18.961085 16.5972-35.556896 35.558286-35.556897s35.556896 16.595811 35.556896 35.556897v132.741486h99.55542c18.961085 0 35.55273 16.591644 35.55273 35.55273 0 18.966641-16.591644 35.558285-35.55273 35.558285z" fill="" p-id="19483"></path></svg>