<?xml version="1.0" standalone="no"?><!DOCTYPE svg PUBLIC "-//W3C//DTD SVG 1.1//EN" "http://www.w3.org/Graphics/SVG/1.1/DTD/svg11.dtd"><svg t="1740065088246" class="icon" viewBox="0 0 1024 1024" version="1.1" xmlns="http://www.w3.org/2000/svg" p-id="21369" xmlns:xlink="http://www.w3.org/1999/xlink" width="200" height="200"><path d="M512 500.297143a243.670204 243.670204 0 1 0-243.565714-243.565714A243.879184 243.879184 0 0 0 512 500.297143z m0-424.542041a180.976327 180.976327 0 1 1-180.871837 180.976327A181.080816 181.080816 0 0 1 512 75.755102zM831.111837 651.180408a356.310204 356.310204 0 0 0-253.596735-104.489796H446.484898A358.713469 358.713469 0 0 0 87.771429 904.881633a97.07102 97.07102 0 0 0 96.86204 96.86204h654.733062a96.966531 96.966531 0 0 0 96.86204-96.86204 356.414694 356.414694 0 0 0-105.116734-253.701225z m8.254694 287.869388H184.633469a33.541224 33.541224 0 0 1-24.137142-10.44898 34.377143 34.377143 0 0 1-10.44898-24.137143 296.124082 296.124082 0 0 1 296.437551-295.601632h131.030204A295.915102 295.915102 0 0 1 873.534694 904.881633a34.272653 34.272653 0 0 1-34.168163 34.168163z" p-id="21370"></path></svg>