<?xml version="1.0" standalone="no"?><!DOCTYPE svg PUBLIC "-//W3C//DTD SVG 1.1//EN" "http://www.w3.org/Graphics/SVG/1.1/DTD/svg11.dtd"><svg t="1740065002351" class="icon" viewBox="0 0 1024 1024" version="1.1" xmlns="http://www.w3.org/2000/svg" p-id="12093" xmlns:xlink="http://www.w3.org/1999/xlink" width="200" height="200"><path d="M904.533333 307.2c-10.24 0-17.066667 6.826667-17.066666 17.066667v529.066666c0 10.24-8.533333 20.48-20.48 20.48h-83.626667c1.706667-6.826667 3.413333-13.653333 3.413333-20.48V218.453333c0-30.72-23.893333-54.613333-54.613333-54.613333H192.853333c-30.72 0-54.613333 23.893333-54.613333 54.613333V853.333333c0 30.72 23.893333 54.613333 54.613333 54.613334h674.133334c30.72 0 54.613333-23.893333 54.613333-54.613334V324.266667c0-8.533333-6.826667-17.066667-17.066667-17.066667z m-394.24-107.52h139.946667v254.293333l-59.733333-56.32c-3.413333-3.413333-6.826667-3.413333-10.24-3.413333s-6.826667 1.706667-10.24 3.413333l-59.733334 56.32V199.68zM279.893333 875.52h-87.04c-10.24 0-20.48-8.533333-20.48-20.48V218.453333c0-10.24 8.533333-20.48 20.48-20.48h288.426667v288.426667c0 5.12 3.413333 10.24 8.533333 13.653333 1.706667 0 3.413333 1.706667 5.12 1.706667 3.413333 0 6.826667-1.706667 10.24-3.413333l75.093334-69.973334 75.093333 69.973334c3.413333 3.413333 10.24 5.12 15.36 3.413333 5.12-1.706667 8.533333-6.826667 8.533333-13.653333V199.68h52.906667c10.24 0 20.48 8.533333 20.48 20.48v634.88c0 10.24-8.533333 20.48-20.48 20.48H279.893333z" fill="#231815" p-id="12094"></path><path d="M273.066667 669.013333h247.466666c10.24 0 17.066667-6.826667 17.066667-17.066666s-6.826667-17.066667-17.066667-17.066667H273.066667c-10.24 0-17.066667 6.826667-17.066667 17.066667s8.533333 17.066667 17.066667 17.066666zM653.653333 740.693333H273.066667c-10.24 0-17.066667 6.826667-17.066667 17.066667s6.826667 17.066667 17.066667 17.066667h378.88c10.24 0 17.066667-6.826667 17.066666-17.066667s-6.826667-17.066667-15.36-17.066667z" fill="#231815" p-id="12095"></path></svg>