<?xml version="1.0" standalone="no"?><!DOCTYPE svg PUBLIC "-//W3C//DTD SVG 1.1//EN" "http://www.w3.org/Graphics/SVG/1.1/DTD/svg11.dtd"><svg t="1739724233261" class="icon" viewBox="0 0 1024 1024" version="1.1" xmlns="http://www.w3.org/2000/svg" p-id="4187" xmlns:xlink="http://www.w3.org/1999/xlink" width="200" height="200"><path d="M910.677333 740.074667c-3.456-22.976-20.714667-41.557333-43.136-48.725334 2.666667-17.216 4.010667-34.453333 4.010667-51.52 0-170.410667-126.058667-312.554667-292.224-343.36a80.426667 80.426667 0 0 0 13.568-44.757333A81.152 81.152 0 0 0 511.850667 170.666667a81.130667 81.130667 0 0 0-81.045334 81.045333c0 16.554667 5.034667 31.914667 13.568 44.757333-166.165333 30.826667-292.224 172.949333-292.224 343.36 0 17.066667 1.344 34.304 4.010667 51.52-22.442667 7.168-39.68 25.770667-43.136 48.746667a61.248 61.248 0 0 0 60.458667 70.336h36.949333v-1.045333c12.608 1.237333 35.221333 1.237333 77.909333 1.28l561.834667-0.234667a61.290667 61.290667 0 0 0 60.501333-70.357333zM473.472 251.712c0-21.162667 17.216-38.378667 38.378667-38.378667a38.4 38.4 0 0 1 0 76.757334 38.442667 38.442667 0 0 1-38.378667-38.378667z m390.698667 509.589333a18.453333 18.453333 0 0 1-13.973334 6.485334h-141.781333c-133.184 0.149333-480 0.448-496.64 0.042666l-1.344-0.042666H173.482667a18.474667 18.474667 0 0 1-13.994667-6.485334 18.346667 18.346667 0 0 1-4.288-14.869333c1.472-9.770667 12.074667-15.594667 21.482667-15.594667h4.565333a21.312 21.312 0 0 0 20.821333-25.984 301.013333 301.013333 0 0 1-7.253333-65.024c0-169.322667 142.229333-307.093333 317.013333-307.093333s317.013333 137.770667 317.013334 307.093333c0 21.504-2.432 43.370667-7.274667 65.002667a21.333333 21.333333 0 0 0 20.821333 25.984h4.565334c9.408 0 20.010667 5.824 21.482666 15.552a18.325333 18.325333 0 0 1-4.266666 14.933333zM466.154667 428.053333c0 9.813333-6.442667 15.850667-17.770667 17.770667-16.917333 2.88-40.682667 11.178667-68.48 32.533333-28.672 22.037333-38.634667 39.189333-41.706667 52.778667-2.176 9.578667-7.957333 17.770667-17.770666 17.770667a17.770667 17.770667 0 0 1-17.770667-17.770667c0-34.496 38.869333-68.096 55.594667-80.938667 25.088-19.285333 61.952-39.893333 90.133333-39.893333a17.749333 17.749333 0 0 1 17.770667 17.749333z" fill="#222222" p-id="4188"></path></svg>