<?xml version="1.0" standalone="no"?><!DOCTYPE svg PUBLIC "-//W3C//DTD SVG 1.1//EN" "http://www.w3.org/Graphics/SVG/1.1/DTD/svg11.dtd"><svg t="1740118856659" class="icon" viewBox="0 0 1024 1024" version="1.1" xmlns="http://www.w3.org/2000/svg" p-id="2650" xmlns:xlink="http://www.w3.org/1999/xlink" width="200" height="200"><path d="M647.04 455.744a61.888 61.888 0 1 0 61.888-61.888 61.952 61.952 0 0 0-61.888 61.888" p-id="2651"></path><path d="M1024 152.192A89.216 89.216 0 0 0 933.952 64H90.048A89.216 89.216 0 0 0 0 152.192v606.72a89.216 89.216 0 0 0 90.048 88.192H396.8L512 959.936l115.2-112.832h306.752A89.216 89.216 0 0 0 1024 758.912v-100.416z m-67.52 579.136a50.112 50.112 0 0 1-50.624 49.6H594.368L512 861.76l-82.368-80.832H118.144a50.176 50.176 0 0 1-50.624-49.6V179.84a50.24 50.24 0 0 1 50.624-49.664h787.712a50.176 50.176 0 0 1 50.624 49.664z m0 0" p-id="2652"></path><path d="M450.112 455.744A61.888 61.888 0 1 0 512 393.856a61.952 61.952 0 0 0-61.888 61.888M253.184 455.744a61.888 61.888 0 1 0 61.888-61.888 61.952 61.952 0 0 0-61.888 61.888" p-id="2653"></path></svg>